G04 #@! TF.GenerationSoftware,KiCad,Pcbnew,no-vcs-found-7571~57~ubuntu16.04.1*
G04 #@! TF.CreationDate,2017-02-02T13:32:18-05:00*
G04 #@! TF.ProjectId,relay_controller_5x3,72656C61795F636F6E74726F6C6C6572,1.2*
G04 #@! TF.FileFunction,Soldermask,Bot*
G04 #@! TF.FilePolarity,Negative*
%FSLAX46Y46*%
G04 Gerber Fmt 4.6, Leading zero omitted, Abs format (unit mm)*
G04 Created by KiCad (PCBNEW no-vcs-found-7571~57~ubuntu16.04.1) date Thu Feb  2 13:32:18 2017*
%MOMM*%
%LPD*%
G01*
G04 APERTURE LIST*
%ADD10C,0.100000*%
%ADD11C,0.228600*%
%ADD12R,1.270000X2.032000*%
%ADD13C,3.759200*%
%ADD14O,1.524000X2.540000*%
%ADD15O,2.540000X1.524000*%
%ADD16C,2.540000*%
%ADD17C,1.778000*%
%ADD18C,1.930400*%
%ADD19O,4.572000X3.556000*%
%ADD20O,4.064000X5.080000*%
%ADD21O,5.080000X3.556000*%
%ADD22O,5.080000X3.048000*%
%ADD23O,2.032000X1.524000*%
%ADD24O,1.524000X2.032000*%
%ADD25O,1.651000X2.159000*%
%ADD26C,1.600200*%
%ADD27R,1.778000X4.191000*%
%ADD28R,2.997200X5.029200*%
%ADD29R,2.540000X1.270000*%
%ADD30R,1.270000X2.540000*%
G04 APERTURE END LIST*
D10*
D11*
X211455000Y-75311000D02*
X93345000Y-75311000D01*
X211455000Y-130429000D02*
X211455000Y-75311000D01*
X93345000Y-130429000D02*
X211455000Y-130429000D01*
X93345000Y-75311000D02*
X93345000Y-130429000D01*
D12*
X124460000Y-92075000D03*
X121920000Y-92075000D03*
X119380000Y-92075000D03*
X119380000Y-100965000D03*
X121920000Y-100965000D03*
X124460000Y-100965000D03*
X143510000Y-92075000D03*
X140970000Y-92075000D03*
X138430000Y-92075000D03*
X138430000Y-100965000D03*
X140970000Y-100965000D03*
X143510000Y-100965000D03*
X162560000Y-92075000D03*
X160020000Y-92075000D03*
X157480000Y-92075000D03*
X157480000Y-100965000D03*
X160020000Y-100965000D03*
X162560000Y-100965000D03*
X181610000Y-92075000D03*
X179070000Y-92075000D03*
X176530000Y-92075000D03*
X176530000Y-100965000D03*
X179070000Y-100965000D03*
X181610000Y-100965000D03*
X124460000Y-114935000D03*
X121920000Y-114935000D03*
X119380000Y-114935000D03*
X119380000Y-123825000D03*
X121920000Y-123825000D03*
X124460000Y-123825000D03*
X143510000Y-114935000D03*
X140970000Y-114935000D03*
X138430000Y-114935000D03*
X138430000Y-123825000D03*
X140970000Y-123825000D03*
X143510000Y-123825000D03*
X162560000Y-114935000D03*
X160020000Y-114935000D03*
X157480000Y-114935000D03*
X157480000Y-123825000D03*
X160020000Y-123825000D03*
X162560000Y-123825000D03*
X181610000Y-114935000D03*
X179070000Y-114935000D03*
X176530000Y-114935000D03*
X176530000Y-123825000D03*
X179070000Y-123825000D03*
X181610000Y-123825000D03*
D13*
X111760000Y-127000000D03*
X113030000Y-78740000D03*
X194310000Y-127000000D03*
X187960000Y-78740000D03*
D14*
X125730000Y-127000000D03*
X128270000Y-127000000D03*
X130810000Y-127000000D03*
X133350000Y-127000000D03*
X135890000Y-127000000D03*
X138430000Y-127000000D03*
X140970000Y-127000000D03*
X143510000Y-127000000D03*
X148590000Y-127000000D03*
X151130000Y-127000000D03*
X153670000Y-127000000D03*
X156210000Y-127000000D03*
X158750000Y-127000000D03*
X161290000Y-127000000D03*
X163830000Y-127000000D03*
X166370000Y-127000000D03*
X171450000Y-127000000D03*
X173990000Y-127000000D03*
X176530000Y-127000000D03*
X179070000Y-127000000D03*
X181610000Y-127000000D03*
X184150000Y-127000000D03*
X186690000Y-127000000D03*
X189230000Y-127000000D03*
X116586000Y-78740000D03*
X119126000Y-78740000D03*
X121666000Y-78740000D03*
X124206000Y-78740000D03*
X126746000Y-78740000D03*
X129286000Y-78740000D03*
X131826000Y-78740000D03*
X134366000Y-78740000D03*
X136906000Y-78740000D03*
X139446000Y-78740000D03*
X143510000Y-78740000D03*
X161290000Y-78740000D03*
X158750000Y-78740000D03*
X156210000Y-78740000D03*
X153670000Y-78740000D03*
X151130000Y-78740000D03*
X148590000Y-78740000D03*
X146050000Y-78740000D03*
X166370000Y-78740000D03*
X168910000Y-78740000D03*
X171450000Y-78740000D03*
X173990000Y-78740000D03*
X176530000Y-78740000D03*
X179070000Y-78740000D03*
X181610000Y-78740000D03*
X184150000Y-78740000D03*
X191770000Y-78232000D03*
X194310000Y-78232000D03*
D15*
X191262000Y-81280000D03*
X194818000Y-81280000D03*
X191262000Y-83820000D03*
X194818000Y-83820000D03*
X191262000Y-86360000D03*
X194818000Y-86360000D03*
X191262000Y-88900000D03*
X194818000Y-88900000D03*
X191262000Y-91440000D03*
X194818000Y-91440000D03*
X191262000Y-93980000D03*
X194818000Y-93980000D03*
X191262000Y-96520000D03*
X194818000Y-96520000D03*
X191262000Y-99060000D03*
X194818000Y-99060000D03*
X191262000Y-101600000D03*
X194818000Y-101600000D03*
X191262000Y-104140000D03*
X194818000Y-104140000D03*
X191262000Y-106680000D03*
X194818000Y-106680000D03*
X191262000Y-109220000D03*
X194818000Y-109220000D03*
X191262000Y-111760000D03*
X194818000Y-111760000D03*
X191262000Y-114300000D03*
X194818000Y-114300000D03*
X191262000Y-116840000D03*
X194818000Y-116840000D03*
X191262000Y-119380000D03*
X194818000Y-119380000D03*
X191262000Y-121920000D03*
X194818000Y-121920000D03*
D16*
X119380000Y-86995000D03*
X124460000Y-86995000D03*
X138430000Y-86995000D03*
X143510000Y-86995000D03*
X157480000Y-86995000D03*
X162560000Y-86995000D03*
X176530000Y-86995000D03*
X181610000Y-86995000D03*
X119380000Y-109855000D03*
X124460000Y-109855000D03*
X138430000Y-109855000D03*
X143510000Y-109855000D03*
X157480000Y-109855000D03*
X162560000Y-109855000D03*
X176530000Y-109855000D03*
X181610000Y-109855000D03*
D17*
X119126000Y-97790000D03*
X124714000Y-97790000D03*
X138176000Y-97790000D03*
X143764000Y-97790000D03*
X157226000Y-97790000D03*
X162814000Y-97790000D03*
X176276000Y-97790000D03*
X181864000Y-97790000D03*
X119126000Y-120650000D03*
X124714000Y-120650000D03*
X138176000Y-120650000D03*
X143764000Y-120650000D03*
X157226000Y-120650000D03*
X162814000Y-120650000D03*
X176276000Y-120650000D03*
X181864000Y-120650000D03*
D14*
X103505000Y-113030000D03*
X100965000Y-113030000D03*
X106045000Y-113030000D03*
D18*
X208457800Y-102870000D03*
D19*
X204952600Y-102870000D03*
D20*
X199466200Y-102870000D03*
D21*
X206451200Y-98374200D03*
X206451200Y-107365800D03*
D22*
X99060000Y-107950000D03*
X99060000Y-97790000D03*
D23*
X105156000Y-102870000D03*
D24*
X107950000Y-102870000D03*
X107950000Y-100076000D03*
X107950000Y-105664000D03*
D25*
X198755000Y-94970600D03*
X203835000Y-94970600D03*
D26*
X99695000Y-90170000D03*
X99695000Y-80264000D03*
D27*
X206375000Y-86106000D03*
X203835000Y-86106000D03*
X201295000Y-86106000D03*
D26*
X208788000Y-82931000D03*
X198882000Y-82931000D03*
D28*
X209829400Y-79375000D03*
X197840600Y-79375000D03*
D26*
X205359000Y-80137000D03*
X205359000Y-90043000D03*
D27*
X201295000Y-119634000D03*
X203835000Y-119634000D03*
X206375000Y-119634000D03*
D26*
X198882000Y-122809000D03*
X208788000Y-122809000D03*
D28*
X197840600Y-126365000D03*
X209829400Y-126365000D03*
D26*
X207518000Y-124079000D03*
X200152000Y-124079000D03*
D24*
X171450000Y-118110000D03*
X171450000Y-123190000D03*
X152400000Y-118745000D03*
X152400000Y-123825000D03*
X133350000Y-118110000D03*
X133350000Y-123190000D03*
X114300000Y-118110000D03*
X114300000Y-123190000D03*
X171450000Y-95250000D03*
X171450000Y-100330000D03*
X152400000Y-95250000D03*
X152400000Y-100330000D03*
X133350000Y-95250000D03*
X133350000Y-100330000D03*
X114300000Y-95250000D03*
X114300000Y-100330000D03*
D23*
X197485000Y-109220000D03*
X202565000Y-109220000D03*
D29*
X186055000Y-120904000D03*
X186055000Y-117856000D03*
X167005000Y-120904000D03*
X167005000Y-117856000D03*
X147955000Y-120904000D03*
X147955000Y-117856000D03*
X128905000Y-120904000D03*
X128905000Y-117856000D03*
X186055000Y-98044000D03*
X186055000Y-94996000D03*
X167005000Y-98044000D03*
X167005000Y-94996000D03*
X147955000Y-98044000D03*
X147955000Y-94996000D03*
X128905000Y-98044000D03*
X128905000Y-94996000D03*
D30*
X100711000Y-117475000D03*
X103759000Y-117475000D03*
X106299000Y-108585000D03*
X103251000Y-108585000D03*
X199771000Y-98425000D03*
X202819000Y-98425000D03*
M02*
