G04 #@! TF.GenerationSoftware,KiCad,Pcbnew,no-vcs-found-7571~57~ubuntu16.04.1*
G04 #@! TF.CreationDate,2017-02-02T13:32:18-05:00*
G04 #@! TF.ProjectId,relay_controller_5x3,72656C61795F636F6E74726F6C6C6572,1.2*
G04 #@! TF.FileFunction,Legend,Bot*
G04 #@! TF.FilePolarity,Positive*
%FSLAX46Y46*%
G04 Gerber Fmt 4.6, Leading zero omitted, Abs format (unit mm)*
G04 Created by KiCad (PCBNEW no-vcs-found-7571~57~ubuntu16.04.1) date Thu Feb  2 13:32:18 2017*
%MOMM*%
%LPD*%
G01*
G04 APERTURE LIST*
%ADD10C,0.100000*%
%ADD11C,0.508000*%
%ADD12C,0.228600*%
%ADD13C,0.381000*%
%ADD14C,0.127000*%
%ADD15C,0.190500*%
%ADD16C,0.254000*%
%ADD17R,1.270000X2.032000*%
%ADD18C,3.759200*%
%ADD19O,1.524000X2.540000*%
%ADD20O,2.540000X1.524000*%
%ADD21C,2.540000*%
%ADD22C,1.778000*%
%ADD23C,1.930400*%
%ADD24O,4.572000X3.556000*%
%ADD25O,4.064000X5.080000*%
%ADD26O,5.080000X3.556000*%
%ADD27O,5.080000X3.048000*%
%ADD28O,2.032000X1.524000*%
%ADD29O,1.524000X2.032000*%
%ADD30O,1.651000X2.159000*%
%ADD31C,1.600200*%
%ADD32R,1.778000X4.191000*%
%ADD33R,2.997200X5.029200*%
%ADD34R,2.540000X1.270000*%
%ADD35R,1.270000X2.540000*%
G04 APERTURE END LIST*
D10*
D11*
X179747333Y-110647238D02*
X178392666Y-110647238D01*
X179263523Y-112679238D01*
X159632952Y-110647238D02*
X160020000Y-110647238D01*
X160213523Y-110744000D01*
X160310285Y-110840761D01*
X160503809Y-111131047D01*
X160600571Y-111518095D01*
X160600571Y-112292190D01*
X160503809Y-112485714D01*
X160407047Y-112582476D01*
X160213523Y-112679238D01*
X159826476Y-112679238D01*
X159632952Y-112582476D01*
X159536190Y-112485714D01*
X159439428Y-112292190D01*
X159439428Y-111808380D01*
X159536190Y-111614857D01*
X159632952Y-111518095D01*
X159826476Y-111421333D01*
X160213523Y-111421333D01*
X160407047Y-111518095D01*
X160503809Y-111614857D01*
X160600571Y-111808380D01*
X140486190Y-110647238D02*
X141453809Y-110647238D01*
X141550571Y-111614857D01*
X141453809Y-111518095D01*
X141260285Y-111421333D01*
X140776476Y-111421333D01*
X140582952Y-111518095D01*
X140486190Y-111614857D01*
X140389428Y-111808380D01*
X140389428Y-112292190D01*
X140486190Y-112485714D01*
X140582952Y-112582476D01*
X140776476Y-112679238D01*
X141260285Y-112679238D01*
X141453809Y-112582476D01*
X141550571Y-112485714D01*
X121532952Y-111324571D02*
X121532952Y-112679238D01*
X122016761Y-110550476D02*
X122500571Y-112001904D01*
X121242666Y-112001904D01*
X179747333Y-87787238D02*
X178489428Y-87787238D01*
X179166761Y-88561333D01*
X178876476Y-88561333D01*
X178682952Y-88658095D01*
X178586190Y-88754857D01*
X178489428Y-88948380D01*
X178489428Y-89432190D01*
X178586190Y-89625714D01*
X178682952Y-89722476D01*
X178876476Y-89819238D01*
X179457047Y-89819238D01*
X179650571Y-89722476D01*
X179747333Y-89625714D01*
X160600571Y-87980761D02*
X160503809Y-87884000D01*
X160310285Y-87787238D01*
X159826476Y-87787238D01*
X159632952Y-87884000D01*
X159536190Y-87980761D01*
X159439428Y-88174285D01*
X159439428Y-88367809D01*
X159536190Y-88658095D01*
X160697333Y-89819238D01*
X159439428Y-89819238D01*
X140389428Y-89819238D02*
X141550571Y-89819238D01*
X140970000Y-89819238D02*
X140970000Y-87787238D01*
X141163523Y-88077523D01*
X141357047Y-88271047D01*
X141550571Y-88367809D01*
X122016761Y-87787238D02*
X121823238Y-87787238D01*
X121629714Y-87884000D01*
X121532952Y-87980761D01*
X121436190Y-88174285D01*
X121339428Y-88561333D01*
X121339428Y-89045142D01*
X121436190Y-89432190D01*
X121532952Y-89625714D01*
X121629714Y-89722476D01*
X121823238Y-89819238D01*
X122016761Y-89819238D01*
X122210285Y-89722476D01*
X122307047Y-89625714D01*
X122403809Y-89432190D01*
X122500571Y-89045142D01*
X122500571Y-88561333D01*
X122403809Y-88174285D01*
X122307047Y-87980761D01*
X122210285Y-87884000D01*
X122016761Y-87787238D01*
D12*
X211455000Y-75311000D02*
X93345000Y-75311000D01*
X211455000Y-130429000D02*
X211455000Y-75311000D01*
X93345000Y-130429000D02*
X211455000Y-130429000D01*
X93345000Y-75311000D02*
X93345000Y-130429000D01*
D13*
X126492000Y-93726000D02*
X126492000Y-99314000D01*
X117348000Y-93726000D02*
X126492000Y-93726000D01*
X117348000Y-99314000D02*
X117348000Y-93726000D01*
X126492000Y-99314000D02*
X117348000Y-99314000D01*
X126968000Y-101044000D02*
G75*
G03X126968000Y-101044000I-508000J0D01*
G01*
X145542000Y-93726000D02*
X145542000Y-99314000D01*
X136398000Y-93726000D02*
X145542000Y-93726000D01*
X136398000Y-99314000D02*
X136398000Y-93726000D01*
X145542000Y-99314000D02*
X136398000Y-99314000D01*
X146018000Y-101044000D02*
G75*
G03X146018000Y-101044000I-508000J0D01*
G01*
X164592000Y-93726000D02*
X164592000Y-99314000D01*
X155448000Y-93726000D02*
X164592000Y-93726000D01*
X155448000Y-99314000D02*
X155448000Y-93726000D01*
X164592000Y-99314000D02*
X155448000Y-99314000D01*
X165068000Y-101044000D02*
G75*
G03X165068000Y-101044000I-508000J0D01*
G01*
X183642000Y-93726000D02*
X183642000Y-99314000D01*
X174498000Y-93726000D02*
X183642000Y-93726000D01*
X174498000Y-99314000D02*
X174498000Y-93726000D01*
X183642000Y-99314000D02*
X174498000Y-99314000D01*
X184118000Y-101044000D02*
G75*
G03X184118000Y-101044000I-508000J0D01*
G01*
X126492000Y-116586000D02*
X126492000Y-122174000D01*
X117348000Y-116586000D02*
X126492000Y-116586000D01*
X117348000Y-122174000D02*
X117348000Y-116586000D01*
X126492000Y-122174000D02*
X117348000Y-122174000D01*
X126968000Y-123904000D02*
G75*
G03X126968000Y-123904000I-508000J0D01*
G01*
X145542000Y-116586000D02*
X145542000Y-122174000D01*
X136398000Y-116586000D02*
X145542000Y-116586000D01*
X136398000Y-122174000D02*
X136398000Y-116586000D01*
X145542000Y-122174000D02*
X136398000Y-122174000D01*
X146018000Y-123904000D02*
G75*
G03X146018000Y-123904000I-508000J0D01*
G01*
X164592000Y-116586000D02*
X164592000Y-122174000D01*
X155448000Y-116586000D02*
X164592000Y-116586000D01*
X155448000Y-122174000D02*
X155448000Y-116586000D01*
X164592000Y-122174000D02*
X155448000Y-122174000D01*
X165068000Y-123904000D02*
G75*
G03X165068000Y-123904000I-508000J0D01*
G01*
X183642000Y-116586000D02*
X183642000Y-122174000D01*
X174498000Y-116586000D02*
X183642000Y-116586000D01*
X174498000Y-122174000D02*
X174498000Y-116586000D01*
X183642000Y-122174000D02*
X174498000Y-122174000D01*
X184118000Y-123904000D02*
G75*
G03X184118000Y-123904000I-508000J0D01*
G01*
X210185000Y-71120000D02*
X197485000Y-71120000D01*
X197485000Y-71120000D02*
X197485000Y-85090000D01*
X210185000Y-71120000D02*
X210185000Y-85090000D01*
X210185000Y-85090000D02*
X197485000Y-85090000D01*
X197485000Y-134620000D02*
X210185000Y-134620000D01*
X210185000Y-134620000D02*
X210185000Y-120650000D01*
X197485000Y-134620000D02*
X197485000Y-120650000D01*
X197485000Y-120650000D02*
X210185000Y-120650000D01*
D14*
X187452000Y-120142000D02*
X187452000Y-121666000D01*
X187452000Y-121666000D02*
X184658000Y-121666000D01*
X184658000Y-121666000D02*
X184658000Y-120142000D01*
X184658000Y-118618000D02*
X184658000Y-117094000D01*
X184658000Y-117094000D02*
X187452000Y-117094000D01*
X187452000Y-117094000D02*
X187452000Y-118618000D01*
X168402000Y-120142000D02*
X168402000Y-121666000D01*
X168402000Y-121666000D02*
X165608000Y-121666000D01*
X165608000Y-121666000D02*
X165608000Y-120142000D01*
X165608000Y-118618000D02*
X165608000Y-117094000D01*
X165608000Y-117094000D02*
X168402000Y-117094000D01*
X168402000Y-117094000D02*
X168402000Y-118618000D01*
X149352000Y-120142000D02*
X149352000Y-121666000D01*
X149352000Y-121666000D02*
X146558000Y-121666000D01*
X146558000Y-121666000D02*
X146558000Y-120142000D01*
X146558000Y-118618000D02*
X146558000Y-117094000D01*
X146558000Y-117094000D02*
X149352000Y-117094000D01*
X149352000Y-117094000D02*
X149352000Y-118618000D01*
X130302000Y-120142000D02*
X130302000Y-121666000D01*
X130302000Y-121666000D02*
X127508000Y-121666000D01*
X127508000Y-121666000D02*
X127508000Y-120142000D01*
X127508000Y-118618000D02*
X127508000Y-117094000D01*
X127508000Y-117094000D02*
X130302000Y-117094000D01*
X130302000Y-117094000D02*
X130302000Y-118618000D01*
X187452000Y-97282000D02*
X187452000Y-98806000D01*
X187452000Y-98806000D02*
X184658000Y-98806000D01*
X184658000Y-98806000D02*
X184658000Y-97282000D01*
X184658000Y-95758000D02*
X184658000Y-94234000D01*
X184658000Y-94234000D02*
X187452000Y-94234000D01*
X187452000Y-94234000D02*
X187452000Y-95758000D01*
X168402000Y-97282000D02*
X168402000Y-98806000D01*
X168402000Y-98806000D02*
X165608000Y-98806000D01*
X165608000Y-98806000D02*
X165608000Y-97282000D01*
X165608000Y-95758000D02*
X165608000Y-94234000D01*
X165608000Y-94234000D02*
X168402000Y-94234000D01*
X168402000Y-94234000D02*
X168402000Y-95758000D01*
X149352000Y-97282000D02*
X149352000Y-98806000D01*
X149352000Y-98806000D02*
X146558000Y-98806000D01*
X146558000Y-98806000D02*
X146558000Y-97282000D01*
X146558000Y-95758000D02*
X146558000Y-94234000D01*
X146558000Y-94234000D02*
X149352000Y-94234000D01*
X149352000Y-94234000D02*
X149352000Y-95758000D01*
X130302000Y-97282000D02*
X130302000Y-98806000D01*
X130302000Y-98806000D02*
X127508000Y-98806000D01*
X127508000Y-98806000D02*
X127508000Y-97282000D01*
X127508000Y-95758000D02*
X127508000Y-94234000D01*
X127508000Y-94234000D02*
X130302000Y-94234000D01*
X130302000Y-94234000D02*
X130302000Y-95758000D01*
X101473000Y-118872000D02*
X99949000Y-118872000D01*
X99949000Y-118872000D02*
X99949000Y-116078000D01*
X99949000Y-116078000D02*
X101473000Y-116078000D01*
X102997000Y-116078000D02*
X104521000Y-116078000D01*
X104521000Y-116078000D02*
X104521000Y-118872000D01*
X104521000Y-118872000D02*
X102997000Y-118872000D01*
X105537000Y-107188000D02*
X107061000Y-107188000D01*
X107061000Y-107188000D02*
X107061000Y-109982000D01*
X107061000Y-109982000D02*
X105537000Y-109982000D01*
X104013000Y-109982000D02*
X102489000Y-109982000D01*
X102489000Y-109982000D02*
X102489000Y-107188000D01*
X102489000Y-107188000D02*
X104013000Y-107188000D01*
X200533000Y-99822000D02*
X199009000Y-99822000D01*
X199009000Y-99822000D02*
X199009000Y-97028000D01*
X199009000Y-97028000D02*
X200533000Y-97028000D01*
X202057000Y-97028000D02*
X203581000Y-97028000D01*
X203581000Y-97028000D02*
X203581000Y-99822000D01*
X203581000Y-99822000D02*
X202057000Y-99822000D01*
D15*
X115787714Y-95939428D02*
X116404571Y-95939428D01*
X116477142Y-95975714D01*
X116513428Y-96012000D01*
X116549714Y-96084571D01*
X116549714Y-96229714D01*
X116513428Y-96302285D01*
X116477142Y-96338571D01*
X116404571Y-96374857D01*
X115787714Y-96374857D01*
X116549714Y-97136857D02*
X116549714Y-96701428D01*
X116549714Y-96919142D02*
X115787714Y-96919142D01*
X115896571Y-96846571D01*
X115969142Y-96774000D01*
X116005428Y-96701428D01*
X122881571Y-96828428D02*
X122772714Y-96864714D01*
X122591285Y-96864714D01*
X122518714Y-96828428D01*
X122482428Y-96792142D01*
X122446142Y-96719571D01*
X122446142Y-96647000D01*
X122482428Y-96574428D01*
X122518714Y-96538142D01*
X122591285Y-96501857D01*
X122736428Y-96465571D01*
X122809000Y-96429285D01*
X122845285Y-96393000D01*
X122881571Y-96320428D01*
X122881571Y-96247857D01*
X122845285Y-96175285D01*
X122809000Y-96139000D01*
X122736428Y-96102714D01*
X122555000Y-96102714D01*
X122446142Y-96139000D01*
X122155857Y-96828428D02*
X122047000Y-96864714D01*
X121865571Y-96864714D01*
X121793000Y-96828428D01*
X121756714Y-96792142D01*
X121720428Y-96719571D01*
X121720428Y-96647000D01*
X121756714Y-96574428D01*
X121793000Y-96538142D01*
X121865571Y-96501857D01*
X122010714Y-96465571D01*
X122083285Y-96429285D01*
X122119571Y-96393000D01*
X122155857Y-96320428D01*
X122155857Y-96247857D01*
X122119571Y-96175285D01*
X122083285Y-96139000D01*
X122010714Y-96102714D01*
X121829285Y-96102714D01*
X121720428Y-96139000D01*
X120958428Y-96864714D02*
X121212428Y-96501857D01*
X121393857Y-96864714D02*
X121393857Y-96102714D01*
X121103571Y-96102714D01*
X121031000Y-96139000D01*
X120994714Y-96175285D01*
X120958428Y-96247857D01*
X120958428Y-96356714D01*
X120994714Y-96429285D01*
X121031000Y-96465571D01*
X121103571Y-96501857D01*
X121393857Y-96501857D01*
X134837714Y-95939428D02*
X135454571Y-95939428D01*
X135527142Y-95975714D01*
X135563428Y-96012000D01*
X135599714Y-96084571D01*
X135599714Y-96229714D01*
X135563428Y-96302285D01*
X135527142Y-96338571D01*
X135454571Y-96374857D01*
X134837714Y-96374857D01*
X134910285Y-96701428D02*
X134874000Y-96737714D01*
X134837714Y-96810285D01*
X134837714Y-96991714D01*
X134874000Y-97064285D01*
X134910285Y-97100571D01*
X134982857Y-97136857D01*
X135055428Y-97136857D01*
X135164285Y-97100571D01*
X135599714Y-96665142D01*
X135599714Y-97136857D01*
X141931571Y-96828428D02*
X141822714Y-96864714D01*
X141641285Y-96864714D01*
X141568714Y-96828428D01*
X141532428Y-96792142D01*
X141496142Y-96719571D01*
X141496142Y-96647000D01*
X141532428Y-96574428D01*
X141568714Y-96538142D01*
X141641285Y-96501857D01*
X141786428Y-96465571D01*
X141859000Y-96429285D01*
X141895285Y-96393000D01*
X141931571Y-96320428D01*
X141931571Y-96247857D01*
X141895285Y-96175285D01*
X141859000Y-96139000D01*
X141786428Y-96102714D01*
X141605000Y-96102714D01*
X141496142Y-96139000D01*
X141205857Y-96828428D02*
X141097000Y-96864714D01*
X140915571Y-96864714D01*
X140843000Y-96828428D01*
X140806714Y-96792142D01*
X140770428Y-96719571D01*
X140770428Y-96647000D01*
X140806714Y-96574428D01*
X140843000Y-96538142D01*
X140915571Y-96501857D01*
X141060714Y-96465571D01*
X141133285Y-96429285D01*
X141169571Y-96393000D01*
X141205857Y-96320428D01*
X141205857Y-96247857D01*
X141169571Y-96175285D01*
X141133285Y-96139000D01*
X141060714Y-96102714D01*
X140879285Y-96102714D01*
X140770428Y-96139000D01*
X140008428Y-96864714D02*
X140262428Y-96501857D01*
X140443857Y-96864714D02*
X140443857Y-96102714D01*
X140153571Y-96102714D01*
X140081000Y-96139000D01*
X140044714Y-96175285D01*
X140008428Y-96247857D01*
X140008428Y-96356714D01*
X140044714Y-96429285D01*
X140081000Y-96465571D01*
X140153571Y-96501857D01*
X140443857Y-96501857D01*
X153887714Y-95939428D02*
X154504571Y-95939428D01*
X154577142Y-95975714D01*
X154613428Y-96012000D01*
X154649714Y-96084571D01*
X154649714Y-96229714D01*
X154613428Y-96302285D01*
X154577142Y-96338571D01*
X154504571Y-96374857D01*
X153887714Y-96374857D01*
X153887714Y-96665142D02*
X153887714Y-97136857D01*
X154178000Y-96882857D01*
X154178000Y-96991714D01*
X154214285Y-97064285D01*
X154250571Y-97100571D01*
X154323142Y-97136857D01*
X154504571Y-97136857D01*
X154577142Y-97100571D01*
X154613428Y-97064285D01*
X154649714Y-96991714D01*
X154649714Y-96774000D01*
X154613428Y-96701428D01*
X154577142Y-96665142D01*
X160981571Y-96828428D02*
X160872714Y-96864714D01*
X160691285Y-96864714D01*
X160618714Y-96828428D01*
X160582428Y-96792142D01*
X160546142Y-96719571D01*
X160546142Y-96647000D01*
X160582428Y-96574428D01*
X160618714Y-96538142D01*
X160691285Y-96501857D01*
X160836428Y-96465571D01*
X160909000Y-96429285D01*
X160945285Y-96393000D01*
X160981571Y-96320428D01*
X160981571Y-96247857D01*
X160945285Y-96175285D01*
X160909000Y-96139000D01*
X160836428Y-96102714D01*
X160655000Y-96102714D01*
X160546142Y-96139000D01*
X160255857Y-96828428D02*
X160147000Y-96864714D01*
X159965571Y-96864714D01*
X159893000Y-96828428D01*
X159856714Y-96792142D01*
X159820428Y-96719571D01*
X159820428Y-96647000D01*
X159856714Y-96574428D01*
X159893000Y-96538142D01*
X159965571Y-96501857D01*
X160110714Y-96465571D01*
X160183285Y-96429285D01*
X160219571Y-96393000D01*
X160255857Y-96320428D01*
X160255857Y-96247857D01*
X160219571Y-96175285D01*
X160183285Y-96139000D01*
X160110714Y-96102714D01*
X159929285Y-96102714D01*
X159820428Y-96139000D01*
X159058428Y-96864714D02*
X159312428Y-96501857D01*
X159493857Y-96864714D02*
X159493857Y-96102714D01*
X159203571Y-96102714D01*
X159131000Y-96139000D01*
X159094714Y-96175285D01*
X159058428Y-96247857D01*
X159058428Y-96356714D01*
X159094714Y-96429285D01*
X159131000Y-96465571D01*
X159203571Y-96501857D01*
X159493857Y-96501857D01*
X172937714Y-95939428D02*
X173554571Y-95939428D01*
X173627142Y-95975714D01*
X173663428Y-96012000D01*
X173699714Y-96084571D01*
X173699714Y-96229714D01*
X173663428Y-96302285D01*
X173627142Y-96338571D01*
X173554571Y-96374857D01*
X172937714Y-96374857D01*
X173191714Y-97064285D02*
X173699714Y-97064285D01*
X172901428Y-96882857D02*
X173445714Y-96701428D01*
X173445714Y-97173142D01*
X180031571Y-96828428D02*
X179922714Y-96864714D01*
X179741285Y-96864714D01*
X179668714Y-96828428D01*
X179632428Y-96792142D01*
X179596142Y-96719571D01*
X179596142Y-96647000D01*
X179632428Y-96574428D01*
X179668714Y-96538142D01*
X179741285Y-96501857D01*
X179886428Y-96465571D01*
X179959000Y-96429285D01*
X179995285Y-96393000D01*
X180031571Y-96320428D01*
X180031571Y-96247857D01*
X179995285Y-96175285D01*
X179959000Y-96139000D01*
X179886428Y-96102714D01*
X179705000Y-96102714D01*
X179596142Y-96139000D01*
X179305857Y-96828428D02*
X179197000Y-96864714D01*
X179015571Y-96864714D01*
X178943000Y-96828428D01*
X178906714Y-96792142D01*
X178870428Y-96719571D01*
X178870428Y-96647000D01*
X178906714Y-96574428D01*
X178943000Y-96538142D01*
X179015571Y-96501857D01*
X179160714Y-96465571D01*
X179233285Y-96429285D01*
X179269571Y-96393000D01*
X179305857Y-96320428D01*
X179305857Y-96247857D01*
X179269571Y-96175285D01*
X179233285Y-96139000D01*
X179160714Y-96102714D01*
X178979285Y-96102714D01*
X178870428Y-96139000D01*
X178108428Y-96864714D02*
X178362428Y-96501857D01*
X178543857Y-96864714D02*
X178543857Y-96102714D01*
X178253571Y-96102714D01*
X178181000Y-96139000D01*
X178144714Y-96175285D01*
X178108428Y-96247857D01*
X178108428Y-96356714D01*
X178144714Y-96429285D01*
X178181000Y-96465571D01*
X178253571Y-96501857D01*
X178543857Y-96501857D01*
X115787714Y-118799428D02*
X116404571Y-118799428D01*
X116477142Y-118835714D01*
X116513428Y-118872000D01*
X116549714Y-118944571D01*
X116549714Y-119089714D01*
X116513428Y-119162285D01*
X116477142Y-119198571D01*
X116404571Y-119234857D01*
X115787714Y-119234857D01*
X115787714Y-119960571D02*
X115787714Y-119597714D01*
X116150571Y-119561428D01*
X116114285Y-119597714D01*
X116078000Y-119670285D01*
X116078000Y-119851714D01*
X116114285Y-119924285D01*
X116150571Y-119960571D01*
X116223142Y-119996857D01*
X116404571Y-119996857D01*
X116477142Y-119960571D01*
X116513428Y-119924285D01*
X116549714Y-119851714D01*
X116549714Y-119670285D01*
X116513428Y-119597714D01*
X116477142Y-119561428D01*
X122881571Y-119688428D02*
X122772714Y-119724714D01*
X122591285Y-119724714D01*
X122518714Y-119688428D01*
X122482428Y-119652142D01*
X122446142Y-119579571D01*
X122446142Y-119507000D01*
X122482428Y-119434428D01*
X122518714Y-119398142D01*
X122591285Y-119361857D01*
X122736428Y-119325571D01*
X122809000Y-119289285D01*
X122845285Y-119253000D01*
X122881571Y-119180428D01*
X122881571Y-119107857D01*
X122845285Y-119035285D01*
X122809000Y-118999000D01*
X122736428Y-118962714D01*
X122555000Y-118962714D01*
X122446142Y-118999000D01*
X122155857Y-119688428D02*
X122047000Y-119724714D01*
X121865571Y-119724714D01*
X121793000Y-119688428D01*
X121756714Y-119652142D01*
X121720428Y-119579571D01*
X121720428Y-119507000D01*
X121756714Y-119434428D01*
X121793000Y-119398142D01*
X121865571Y-119361857D01*
X122010714Y-119325571D01*
X122083285Y-119289285D01*
X122119571Y-119253000D01*
X122155857Y-119180428D01*
X122155857Y-119107857D01*
X122119571Y-119035285D01*
X122083285Y-118999000D01*
X122010714Y-118962714D01*
X121829285Y-118962714D01*
X121720428Y-118999000D01*
X120958428Y-119724714D02*
X121212428Y-119361857D01*
X121393857Y-119724714D02*
X121393857Y-118962714D01*
X121103571Y-118962714D01*
X121031000Y-118999000D01*
X120994714Y-119035285D01*
X120958428Y-119107857D01*
X120958428Y-119216714D01*
X120994714Y-119289285D01*
X121031000Y-119325571D01*
X121103571Y-119361857D01*
X121393857Y-119361857D01*
X134837714Y-118799428D02*
X135454571Y-118799428D01*
X135527142Y-118835714D01*
X135563428Y-118872000D01*
X135599714Y-118944571D01*
X135599714Y-119089714D01*
X135563428Y-119162285D01*
X135527142Y-119198571D01*
X135454571Y-119234857D01*
X134837714Y-119234857D01*
X134837714Y-119924285D02*
X134837714Y-119779142D01*
X134874000Y-119706571D01*
X134910285Y-119670285D01*
X135019142Y-119597714D01*
X135164285Y-119561428D01*
X135454571Y-119561428D01*
X135527142Y-119597714D01*
X135563428Y-119634000D01*
X135599714Y-119706571D01*
X135599714Y-119851714D01*
X135563428Y-119924285D01*
X135527142Y-119960571D01*
X135454571Y-119996857D01*
X135273142Y-119996857D01*
X135200571Y-119960571D01*
X135164285Y-119924285D01*
X135128000Y-119851714D01*
X135128000Y-119706571D01*
X135164285Y-119634000D01*
X135200571Y-119597714D01*
X135273142Y-119561428D01*
X141931571Y-119688428D02*
X141822714Y-119724714D01*
X141641285Y-119724714D01*
X141568714Y-119688428D01*
X141532428Y-119652142D01*
X141496142Y-119579571D01*
X141496142Y-119507000D01*
X141532428Y-119434428D01*
X141568714Y-119398142D01*
X141641285Y-119361857D01*
X141786428Y-119325571D01*
X141859000Y-119289285D01*
X141895285Y-119253000D01*
X141931571Y-119180428D01*
X141931571Y-119107857D01*
X141895285Y-119035285D01*
X141859000Y-118999000D01*
X141786428Y-118962714D01*
X141605000Y-118962714D01*
X141496142Y-118999000D01*
X141205857Y-119688428D02*
X141097000Y-119724714D01*
X140915571Y-119724714D01*
X140843000Y-119688428D01*
X140806714Y-119652142D01*
X140770428Y-119579571D01*
X140770428Y-119507000D01*
X140806714Y-119434428D01*
X140843000Y-119398142D01*
X140915571Y-119361857D01*
X141060714Y-119325571D01*
X141133285Y-119289285D01*
X141169571Y-119253000D01*
X141205857Y-119180428D01*
X141205857Y-119107857D01*
X141169571Y-119035285D01*
X141133285Y-118999000D01*
X141060714Y-118962714D01*
X140879285Y-118962714D01*
X140770428Y-118999000D01*
X140008428Y-119724714D02*
X140262428Y-119361857D01*
X140443857Y-119724714D02*
X140443857Y-118962714D01*
X140153571Y-118962714D01*
X140081000Y-118999000D01*
X140044714Y-119035285D01*
X140008428Y-119107857D01*
X140008428Y-119216714D01*
X140044714Y-119289285D01*
X140081000Y-119325571D01*
X140153571Y-119361857D01*
X140443857Y-119361857D01*
X153887714Y-118799428D02*
X154504571Y-118799428D01*
X154577142Y-118835714D01*
X154613428Y-118872000D01*
X154649714Y-118944571D01*
X154649714Y-119089714D01*
X154613428Y-119162285D01*
X154577142Y-119198571D01*
X154504571Y-119234857D01*
X153887714Y-119234857D01*
X153887714Y-119525142D02*
X153887714Y-120033142D01*
X154649714Y-119706571D01*
X160981571Y-119688428D02*
X160872714Y-119724714D01*
X160691285Y-119724714D01*
X160618714Y-119688428D01*
X160582428Y-119652142D01*
X160546142Y-119579571D01*
X160546142Y-119507000D01*
X160582428Y-119434428D01*
X160618714Y-119398142D01*
X160691285Y-119361857D01*
X160836428Y-119325571D01*
X160909000Y-119289285D01*
X160945285Y-119253000D01*
X160981571Y-119180428D01*
X160981571Y-119107857D01*
X160945285Y-119035285D01*
X160909000Y-118999000D01*
X160836428Y-118962714D01*
X160655000Y-118962714D01*
X160546142Y-118999000D01*
X160255857Y-119688428D02*
X160147000Y-119724714D01*
X159965571Y-119724714D01*
X159893000Y-119688428D01*
X159856714Y-119652142D01*
X159820428Y-119579571D01*
X159820428Y-119507000D01*
X159856714Y-119434428D01*
X159893000Y-119398142D01*
X159965571Y-119361857D01*
X160110714Y-119325571D01*
X160183285Y-119289285D01*
X160219571Y-119253000D01*
X160255857Y-119180428D01*
X160255857Y-119107857D01*
X160219571Y-119035285D01*
X160183285Y-118999000D01*
X160110714Y-118962714D01*
X159929285Y-118962714D01*
X159820428Y-118999000D01*
X159058428Y-119724714D02*
X159312428Y-119361857D01*
X159493857Y-119724714D02*
X159493857Y-118962714D01*
X159203571Y-118962714D01*
X159131000Y-118999000D01*
X159094714Y-119035285D01*
X159058428Y-119107857D01*
X159058428Y-119216714D01*
X159094714Y-119289285D01*
X159131000Y-119325571D01*
X159203571Y-119361857D01*
X159493857Y-119361857D01*
X172937714Y-118799428D02*
X173554571Y-118799428D01*
X173627142Y-118835714D01*
X173663428Y-118872000D01*
X173699714Y-118944571D01*
X173699714Y-119089714D01*
X173663428Y-119162285D01*
X173627142Y-119198571D01*
X173554571Y-119234857D01*
X172937714Y-119234857D01*
X173264285Y-119706571D02*
X173228000Y-119634000D01*
X173191714Y-119597714D01*
X173119142Y-119561428D01*
X173082857Y-119561428D01*
X173010285Y-119597714D01*
X172974000Y-119634000D01*
X172937714Y-119706571D01*
X172937714Y-119851714D01*
X172974000Y-119924285D01*
X173010285Y-119960571D01*
X173082857Y-119996857D01*
X173119142Y-119996857D01*
X173191714Y-119960571D01*
X173228000Y-119924285D01*
X173264285Y-119851714D01*
X173264285Y-119706571D01*
X173300571Y-119634000D01*
X173336857Y-119597714D01*
X173409428Y-119561428D01*
X173554571Y-119561428D01*
X173627142Y-119597714D01*
X173663428Y-119634000D01*
X173699714Y-119706571D01*
X173699714Y-119851714D01*
X173663428Y-119924285D01*
X173627142Y-119960571D01*
X173554571Y-119996857D01*
X173409428Y-119996857D01*
X173336857Y-119960571D01*
X173300571Y-119924285D01*
X173264285Y-119851714D01*
X180031571Y-119688428D02*
X179922714Y-119724714D01*
X179741285Y-119724714D01*
X179668714Y-119688428D01*
X179632428Y-119652142D01*
X179596142Y-119579571D01*
X179596142Y-119507000D01*
X179632428Y-119434428D01*
X179668714Y-119398142D01*
X179741285Y-119361857D01*
X179886428Y-119325571D01*
X179959000Y-119289285D01*
X179995285Y-119253000D01*
X180031571Y-119180428D01*
X180031571Y-119107857D01*
X179995285Y-119035285D01*
X179959000Y-118999000D01*
X179886428Y-118962714D01*
X179705000Y-118962714D01*
X179596142Y-118999000D01*
X179305857Y-119688428D02*
X179197000Y-119724714D01*
X179015571Y-119724714D01*
X178943000Y-119688428D01*
X178906714Y-119652142D01*
X178870428Y-119579571D01*
X178870428Y-119507000D01*
X178906714Y-119434428D01*
X178943000Y-119398142D01*
X179015571Y-119361857D01*
X179160714Y-119325571D01*
X179233285Y-119289285D01*
X179269571Y-119253000D01*
X179305857Y-119180428D01*
X179305857Y-119107857D01*
X179269571Y-119035285D01*
X179233285Y-118999000D01*
X179160714Y-118962714D01*
X178979285Y-118962714D01*
X178870428Y-118999000D01*
X178108428Y-119724714D02*
X178362428Y-119361857D01*
X178543857Y-119724714D02*
X178543857Y-118962714D01*
X178253571Y-118962714D01*
X178181000Y-118999000D01*
X178144714Y-119035285D01*
X178108428Y-119107857D01*
X178108428Y-119216714D01*
X178144714Y-119289285D01*
X178181000Y-119325571D01*
X178253571Y-119361857D01*
X178543857Y-119361857D01*
D16*
X210299904Y-86819619D02*
X210299904Y-85803619D01*
X209912857Y-85803619D01*
X209816095Y-85852000D01*
X209767714Y-85900380D01*
X209719333Y-85997142D01*
X209719333Y-86142285D01*
X209767714Y-86239047D01*
X209816095Y-86287428D01*
X209912857Y-86335809D01*
X210299904Y-86335809D01*
X209380666Y-85803619D02*
X208751714Y-85803619D01*
X209090380Y-86190666D01*
X208945238Y-86190666D01*
X208848476Y-86239047D01*
X208800095Y-86287428D01*
X208751714Y-86384190D01*
X208751714Y-86626095D01*
X208800095Y-86722857D01*
X208848476Y-86771238D01*
X208945238Y-86819619D01*
X209235523Y-86819619D01*
X209332285Y-86771238D01*
X209380666Y-86722857D01*
X198869904Y-119839619D02*
X198869904Y-118823619D01*
X198482857Y-118823619D01*
X198386095Y-118872000D01*
X198337714Y-118920380D01*
X198289333Y-119017142D01*
X198289333Y-119162285D01*
X198337714Y-119259047D01*
X198386095Y-119307428D01*
X198482857Y-119355809D01*
X198869904Y-119355809D01*
X197370095Y-118823619D02*
X197853904Y-118823619D01*
X197902285Y-119307428D01*
X197853904Y-119259047D01*
X197757142Y-119210666D01*
X197515238Y-119210666D01*
X197418476Y-119259047D01*
X197370095Y-119307428D01*
X197321714Y-119404190D01*
X197321714Y-119646095D01*
X197370095Y-119742857D01*
X197418476Y-119791238D01*
X197515238Y-119839619D01*
X197757142Y-119839619D01*
X197853904Y-119791238D01*
X197902285Y-119742857D01*
X186224333Y-123014619D02*
X186563000Y-122530809D01*
X186804904Y-123014619D02*
X186804904Y-121998619D01*
X186417857Y-121998619D01*
X186321095Y-122047000D01*
X186272714Y-122095380D01*
X186224333Y-122192142D01*
X186224333Y-122337285D01*
X186272714Y-122434047D01*
X186321095Y-122482428D01*
X186417857Y-122530809D01*
X186804904Y-122530809D01*
X185643761Y-122434047D02*
X185740523Y-122385666D01*
X185788904Y-122337285D01*
X185837285Y-122240523D01*
X185837285Y-122192142D01*
X185788904Y-122095380D01*
X185740523Y-122047000D01*
X185643761Y-121998619D01*
X185450238Y-121998619D01*
X185353476Y-122047000D01*
X185305095Y-122095380D01*
X185256714Y-122192142D01*
X185256714Y-122240523D01*
X185305095Y-122337285D01*
X185353476Y-122385666D01*
X185450238Y-122434047D01*
X185643761Y-122434047D01*
X185740523Y-122482428D01*
X185788904Y-122530809D01*
X185837285Y-122627571D01*
X185837285Y-122821095D01*
X185788904Y-122917857D01*
X185740523Y-122966238D01*
X185643761Y-123014619D01*
X185450238Y-123014619D01*
X185353476Y-122966238D01*
X185305095Y-122917857D01*
X185256714Y-122821095D01*
X185256714Y-122627571D01*
X185305095Y-122530809D01*
X185353476Y-122482428D01*
X185450238Y-122434047D01*
X187312904Y-115745380D02*
X187264523Y-115697000D01*
X187167761Y-115648619D01*
X186925857Y-115648619D01*
X186829095Y-115697000D01*
X186780714Y-115745380D01*
X186732333Y-115842142D01*
X186732333Y-115938904D01*
X186780714Y-116084047D01*
X187361285Y-116664619D01*
X186732333Y-116664619D01*
X186103380Y-115648619D02*
X186006619Y-115648619D01*
X185909857Y-115697000D01*
X185861476Y-115745380D01*
X185813095Y-115842142D01*
X185764714Y-116035666D01*
X185764714Y-116277571D01*
X185813095Y-116471095D01*
X185861476Y-116567857D01*
X185909857Y-116616238D01*
X186006619Y-116664619D01*
X186103380Y-116664619D01*
X186200142Y-116616238D01*
X186248523Y-116567857D01*
X186296904Y-116471095D01*
X186345285Y-116277571D01*
X186345285Y-116035666D01*
X186296904Y-115842142D01*
X186248523Y-115745380D01*
X186200142Y-115697000D01*
X186103380Y-115648619D01*
X185135761Y-115648619D02*
X185039000Y-115648619D01*
X184942238Y-115697000D01*
X184893857Y-115745380D01*
X184845476Y-115842142D01*
X184797095Y-116035666D01*
X184797095Y-116277571D01*
X184845476Y-116471095D01*
X184893857Y-116567857D01*
X184942238Y-116616238D01*
X185039000Y-116664619D01*
X185135761Y-116664619D01*
X185232523Y-116616238D01*
X185280904Y-116567857D01*
X185329285Y-116471095D01*
X185377666Y-116277571D01*
X185377666Y-116035666D01*
X185329285Y-115842142D01*
X185280904Y-115745380D01*
X185232523Y-115697000D01*
X185135761Y-115648619D01*
X167174333Y-123014619D02*
X167513000Y-122530809D01*
X167754904Y-123014619D02*
X167754904Y-121998619D01*
X167367857Y-121998619D01*
X167271095Y-122047000D01*
X167222714Y-122095380D01*
X167174333Y-122192142D01*
X167174333Y-122337285D01*
X167222714Y-122434047D01*
X167271095Y-122482428D01*
X167367857Y-122530809D01*
X167754904Y-122530809D01*
X166835666Y-121998619D02*
X166158333Y-121998619D01*
X166593761Y-123014619D01*
X168262904Y-115745380D02*
X168214523Y-115697000D01*
X168117761Y-115648619D01*
X167875857Y-115648619D01*
X167779095Y-115697000D01*
X167730714Y-115745380D01*
X167682333Y-115842142D01*
X167682333Y-115938904D01*
X167730714Y-116084047D01*
X168311285Y-116664619D01*
X167682333Y-116664619D01*
X167053380Y-115648619D02*
X166956619Y-115648619D01*
X166859857Y-115697000D01*
X166811476Y-115745380D01*
X166763095Y-115842142D01*
X166714714Y-116035666D01*
X166714714Y-116277571D01*
X166763095Y-116471095D01*
X166811476Y-116567857D01*
X166859857Y-116616238D01*
X166956619Y-116664619D01*
X167053380Y-116664619D01*
X167150142Y-116616238D01*
X167198523Y-116567857D01*
X167246904Y-116471095D01*
X167295285Y-116277571D01*
X167295285Y-116035666D01*
X167246904Y-115842142D01*
X167198523Y-115745380D01*
X167150142Y-115697000D01*
X167053380Y-115648619D01*
X166085761Y-115648619D02*
X165989000Y-115648619D01*
X165892238Y-115697000D01*
X165843857Y-115745380D01*
X165795476Y-115842142D01*
X165747095Y-116035666D01*
X165747095Y-116277571D01*
X165795476Y-116471095D01*
X165843857Y-116567857D01*
X165892238Y-116616238D01*
X165989000Y-116664619D01*
X166085761Y-116664619D01*
X166182523Y-116616238D01*
X166230904Y-116567857D01*
X166279285Y-116471095D01*
X166327666Y-116277571D01*
X166327666Y-116035666D01*
X166279285Y-115842142D01*
X166230904Y-115745380D01*
X166182523Y-115697000D01*
X166085761Y-115648619D01*
X148124333Y-123014619D02*
X148463000Y-122530809D01*
X148704904Y-123014619D02*
X148704904Y-121998619D01*
X148317857Y-121998619D01*
X148221095Y-122047000D01*
X148172714Y-122095380D01*
X148124333Y-122192142D01*
X148124333Y-122337285D01*
X148172714Y-122434047D01*
X148221095Y-122482428D01*
X148317857Y-122530809D01*
X148704904Y-122530809D01*
X147253476Y-121998619D02*
X147447000Y-121998619D01*
X147543761Y-122047000D01*
X147592142Y-122095380D01*
X147688904Y-122240523D01*
X147737285Y-122434047D01*
X147737285Y-122821095D01*
X147688904Y-122917857D01*
X147640523Y-122966238D01*
X147543761Y-123014619D01*
X147350238Y-123014619D01*
X147253476Y-122966238D01*
X147205095Y-122917857D01*
X147156714Y-122821095D01*
X147156714Y-122579190D01*
X147205095Y-122482428D01*
X147253476Y-122434047D01*
X147350238Y-122385666D01*
X147543761Y-122385666D01*
X147640523Y-122434047D01*
X147688904Y-122482428D01*
X147737285Y-122579190D01*
X149212904Y-115745380D02*
X149164523Y-115697000D01*
X149067761Y-115648619D01*
X148825857Y-115648619D01*
X148729095Y-115697000D01*
X148680714Y-115745380D01*
X148632333Y-115842142D01*
X148632333Y-115938904D01*
X148680714Y-116084047D01*
X149261285Y-116664619D01*
X148632333Y-116664619D01*
X148003380Y-115648619D02*
X147906619Y-115648619D01*
X147809857Y-115697000D01*
X147761476Y-115745380D01*
X147713095Y-115842142D01*
X147664714Y-116035666D01*
X147664714Y-116277571D01*
X147713095Y-116471095D01*
X147761476Y-116567857D01*
X147809857Y-116616238D01*
X147906619Y-116664619D01*
X148003380Y-116664619D01*
X148100142Y-116616238D01*
X148148523Y-116567857D01*
X148196904Y-116471095D01*
X148245285Y-116277571D01*
X148245285Y-116035666D01*
X148196904Y-115842142D01*
X148148523Y-115745380D01*
X148100142Y-115697000D01*
X148003380Y-115648619D01*
X147035761Y-115648619D02*
X146939000Y-115648619D01*
X146842238Y-115697000D01*
X146793857Y-115745380D01*
X146745476Y-115842142D01*
X146697095Y-116035666D01*
X146697095Y-116277571D01*
X146745476Y-116471095D01*
X146793857Y-116567857D01*
X146842238Y-116616238D01*
X146939000Y-116664619D01*
X147035761Y-116664619D01*
X147132523Y-116616238D01*
X147180904Y-116567857D01*
X147229285Y-116471095D01*
X147277666Y-116277571D01*
X147277666Y-116035666D01*
X147229285Y-115842142D01*
X147180904Y-115745380D01*
X147132523Y-115697000D01*
X147035761Y-115648619D01*
X129074333Y-123014619D02*
X129413000Y-122530809D01*
X129654904Y-123014619D02*
X129654904Y-121998619D01*
X129267857Y-121998619D01*
X129171095Y-122047000D01*
X129122714Y-122095380D01*
X129074333Y-122192142D01*
X129074333Y-122337285D01*
X129122714Y-122434047D01*
X129171095Y-122482428D01*
X129267857Y-122530809D01*
X129654904Y-122530809D01*
X128155095Y-121998619D02*
X128638904Y-121998619D01*
X128687285Y-122482428D01*
X128638904Y-122434047D01*
X128542142Y-122385666D01*
X128300238Y-122385666D01*
X128203476Y-122434047D01*
X128155095Y-122482428D01*
X128106714Y-122579190D01*
X128106714Y-122821095D01*
X128155095Y-122917857D01*
X128203476Y-122966238D01*
X128300238Y-123014619D01*
X128542142Y-123014619D01*
X128638904Y-122966238D01*
X128687285Y-122917857D01*
X130162904Y-115745380D02*
X130114523Y-115697000D01*
X130017761Y-115648619D01*
X129775857Y-115648619D01*
X129679095Y-115697000D01*
X129630714Y-115745380D01*
X129582333Y-115842142D01*
X129582333Y-115938904D01*
X129630714Y-116084047D01*
X130211285Y-116664619D01*
X129582333Y-116664619D01*
X128953380Y-115648619D02*
X128856619Y-115648619D01*
X128759857Y-115697000D01*
X128711476Y-115745380D01*
X128663095Y-115842142D01*
X128614714Y-116035666D01*
X128614714Y-116277571D01*
X128663095Y-116471095D01*
X128711476Y-116567857D01*
X128759857Y-116616238D01*
X128856619Y-116664619D01*
X128953380Y-116664619D01*
X129050142Y-116616238D01*
X129098523Y-116567857D01*
X129146904Y-116471095D01*
X129195285Y-116277571D01*
X129195285Y-116035666D01*
X129146904Y-115842142D01*
X129098523Y-115745380D01*
X129050142Y-115697000D01*
X128953380Y-115648619D01*
X127985761Y-115648619D02*
X127889000Y-115648619D01*
X127792238Y-115697000D01*
X127743857Y-115745380D01*
X127695476Y-115842142D01*
X127647095Y-116035666D01*
X127647095Y-116277571D01*
X127695476Y-116471095D01*
X127743857Y-116567857D01*
X127792238Y-116616238D01*
X127889000Y-116664619D01*
X127985761Y-116664619D01*
X128082523Y-116616238D01*
X128130904Y-116567857D01*
X128179285Y-116471095D01*
X128227666Y-116277571D01*
X128227666Y-116035666D01*
X128179285Y-115842142D01*
X128130904Y-115745380D01*
X128082523Y-115697000D01*
X127985761Y-115648619D01*
X186224333Y-100154619D02*
X186563000Y-99670809D01*
X186804904Y-100154619D02*
X186804904Y-99138619D01*
X186417857Y-99138619D01*
X186321095Y-99187000D01*
X186272714Y-99235380D01*
X186224333Y-99332142D01*
X186224333Y-99477285D01*
X186272714Y-99574047D01*
X186321095Y-99622428D01*
X186417857Y-99670809D01*
X186804904Y-99670809D01*
X185353476Y-99477285D02*
X185353476Y-100154619D01*
X185595380Y-99090238D02*
X185837285Y-99815952D01*
X185208333Y-99815952D01*
X187312904Y-92885380D02*
X187264523Y-92837000D01*
X187167761Y-92788619D01*
X186925857Y-92788619D01*
X186829095Y-92837000D01*
X186780714Y-92885380D01*
X186732333Y-92982142D01*
X186732333Y-93078904D01*
X186780714Y-93224047D01*
X187361285Y-93804619D01*
X186732333Y-93804619D01*
X186103380Y-92788619D02*
X186006619Y-92788619D01*
X185909857Y-92837000D01*
X185861476Y-92885380D01*
X185813095Y-92982142D01*
X185764714Y-93175666D01*
X185764714Y-93417571D01*
X185813095Y-93611095D01*
X185861476Y-93707857D01*
X185909857Y-93756238D01*
X186006619Y-93804619D01*
X186103380Y-93804619D01*
X186200142Y-93756238D01*
X186248523Y-93707857D01*
X186296904Y-93611095D01*
X186345285Y-93417571D01*
X186345285Y-93175666D01*
X186296904Y-92982142D01*
X186248523Y-92885380D01*
X186200142Y-92837000D01*
X186103380Y-92788619D01*
X185135761Y-92788619D02*
X185039000Y-92788619D01*
X184942238Y-92837000D01*
X184893857Y-92885380D01*
X184845476Y-92982142D01*
X184797095Y-93175666D01*
X184797095Y-93417571D01*
X184845476Y-93611095D01*
X184893857Y-93707857D01*
X184942238Y-93756238D01*
X185039000Y-93804619D01*
X185135761Y-93804619D01*
X185232523Y-93756238D01*
X185280904Y-93707857D01*
X185329285Y-93611095D01*
X185377666Y-93417571D01*
X185377666Y-93175666D01*
X185329285Y-92982142D01*
X185280904Y-92885380D01*
X185232523Y-92837000D01*
X185135761Y-92788619D01*
X167174333Y-100154619D02*
X167513000Y-99670809D01*
X167754904Y-100154619D02*
X167754904Y-99138619D01*
X167367857Y-99138619D01*
X167271095Y-99187000D01*
X167222714Y-99235380D01*
X167174333Y-99332142D01*
X167174333Y-99477285D01*
X167222714Y-99574047D01*
X167271095Y-99622428D01*
X167367857Y-99670809D01*
X167754904Y-99670809D01*
X166835666Y-99138619D02*
X166206714Y-99138619D01*
X166545380Y-99525666D01*
X166400238Y-99525666D01*
X166303476Y-99574047D01*
X166255095Y-99622428D01*
X166206714Y-99719190D01*
X166206714Y-99961095D01*
X166255095Y-100057857D01*
X166303476Y-100106238D01*
X166400238Y-100154619D01*
X166690523Y-100154619D01*
X166787285Y-100106238D01*
X166835666Y-100057857D01*
X168262904Y-92885380D02*
X168214523Y-92837000D01*
X168117761Y-92788619D01*
X167875857Y-92788619D01*
X167779095Y-92837000D01*
X167730714Y-92885380D01*
X167682333Y-92982142D01*
X167682333Y-93078904D01*
X167730714Y-93224047D01*
X168311285Y-93804619D01*
X167682333Y-93804619D01*
X167053380Y-92788619D02*
X166956619Y-92788619D01*
X166859857Y-92837000D01*
X166811476Y-92885380D01*
X166763095Y-92982142D01*
X166714714Y-93175666D01*
X166714714Y-93417571D01*
X166763095Y-93611095D01*
X166811476Y-93707857D01*
X166859857Y-93756238D01*
X166956619Y-93804619D01*
X167053380Y-93804619D01*
X167150142Y-93756238D01*
X167198523Y-93707857D01*
X167246904Y-93611095D01*
X167295285Y-93417571D01*
X167295285Y-93175666D01*
X167246904Y-92982142D01*
X167198523Y-92885380D01*
X167150142Y-92837000D01*
X167053380Y-92788619D01*
X166085761Y-92788619D02*
X165989000Y-92788619D01*
X165892238Y-92837000D01*
X165843857Y-92885380D01*
X165795476Y-92982142D01*
X165747095Y-93175666D01*
X165747095Y-93417571D01*
X165795476Y-93611095D01*
X165843857Y-93707857D01*
X165892238Y-93756238D01*
X165989000Y-93804619D01*
X166085761Y-93804619D01*
X166182523Y-93756238D01*
X166230904Y-93707857D01*
X166279285Y-93611095D01*
X166327666Y-93417571D01*
X166327666Y-93175666D01*
X166279285Y-92982142D01*
X166230904Y-92885380D01*
X166182523Y-92837000D01*
X166085761Y-92788619D01*
X148124333Y-100154619D02*
X148463000Y-99670809D01*
X148704904Y-100154619D02*
X148704904Y-99138619D01*
X148317857Y-99138619D01*
X148221095Y-99187000D01*
X148172714Y-99235380D01*
X148124333Y-99332142D01*
X148124333Y-99477285D01*
X148172714Y-99574047D01*
X148221095Y-99622428D01*
X148317857Y-99670809D01*
X148704904Y-99670809D01*
X147737285Y-99235380D02*
X147688904Y-99187000D01*
X147592142Y-99138619D01*
X147350238Y-99138619D01*
X147253476Y-99187000D01*
X147205095Y-99235380D01*
X147156714Y-99332142D01*
X147156714Y-99428904D01*
X147205095Y-99574047D01*
X147785666Y-100154619D01*
X147156714Y-100154619D01*
X149212904Y-92885380D02*
X149164523Y-92837000D01*
X149067761Y-92788619D01*
X148825857Y-92788619D01*
X148729095Y-92837000D01*
X148680714Y-92885380D01*
X148632333Y-92982142D01*
X148632333Y-93078904D01*
X148680714Y-93224047D01*
X149261285Y-93804619D01*
X148632333Y-93804619D01*
X148003380Y-92788619D02*
X147906619Y-92788619D01*
X147809857Y-92837000D01*
X147761476Y-92885380D01*
X147713095Y-92982142D01*
X147664714Y-93175666D01*
X147664714Y-93417571D01*
X147713095Y-93611095D01*
X147761476Y-93707857D01*
X147809857Y-93756238D01*
X147906619Y-93804619D01*
X148003380Y-93804619D01*
X148100142Y-93756238D01*
X148148523Y-93707857D01*
X148196904Y-93611095D01*
X148245285Y-93417571D01*
X148245285Y-93175666D01*
X148196904Y-92982142D01*
X148148523Y-92885380D01*
X148100142Y-92837000D01*
X148003380Y-92788619D01*
X147035761Y-92788619D02*
X146939000Y-92788619D01*
X146842238Y-92837000D01*
X146793857Y-92885380D01*
X146745476Y-92982142D01*
X146697095Y-93175666D01*
X146697095Y-93417571D01*
X146745476Y-93611095D01*
X146793857Y-93707857D01*
X146842238Y-93756238D01*
X146939000Y-93804619D01*
X147035761Y-93804619D01*
X147132523Y-93756238D01*
X147180904Y-93707857D01*
X147229285Y-93611095D01*
X147277666Y-93417571D01*
X147277666Y-93175666D01*
X147229285Y-92982142D01*
X147180904Y-92885380D01*
X147132523Y-92837000D01*
X147035761Y-92788619D01*
X129074333Y-100154619D02*
X129413000Y-99670809D01*
X129654904Y-100154619D02*
X129654904Y-99138619D01*
X129267857Y-99138619D01*
X129171095Y-99187000D01*
X129122714Y-99235380D01*
X129074333Y-99332142D01*
X129074333Y-99477285D01*
X129122714Y-99574047D01*
X129171095Y-99622428D01*
X129267857Y-99670809D01*
X129654904Y-99670809D01*
X128106714Y-100154619D02*
X128687285Y-100154619D01*
X128397000Y-100154619D02*
X128397000Y-99138619D01*
X128493761Y-99283761D01*
X128590523Y-99380523D01*
X128687285Y-99428904D01*
X130162904Y-92885380D02*
X130114523Y-92837000D01*
X130017761Y-92788619D01*
X129775857Y-92788619D01*
X129679095Y-92837000D01*
X129630714Y-92885380D01*
X129582333Y-92982142D01*
X129582333Y-93078904D01*
X129630714Y-93224047D01*
X130211285Y-93804619D01*
X129582333Y-93804619D01*
X128953380Y-92788619D02*
X128856619Y-92788619D01*
X128759857Y-92837000D01*
X128711476Y-92885380D01*
X128663095Y-92982142D01*
X128614714Y-93175666D01*
X128614714Y-93417571D01*
X128663095Y-93611095D01*
X128711476Y-93707857D01*
X128759857Y-93756238D01*
X128856619Y-93804619D01*
X128953380Y-93804619D01*
X129050142Y-93756238D01*
X129098523Y-93707857D01*
X129146904Y-93611095D01*
X129195285Y-93417571D01*
X129195285Y-93175666D01*
X129146904Y-92982142D01*
X129098523Y-92885380D01*
X129050142Y-92837000D01*
X128953380Y-92788619D01*
X127985761Y-92788619D02*
X127889000Y-92788619D01*
X127792238Y-92837000D01*
X127743857Y-92885380D01*
X127695476Y-92982142D01*
X127647095Y-93175666D01*
X127647095Y-93417571D01*
X127695476Y-93611095D01*
X127743857Y-93707857D01*
X127792238Y-93756238D01*
X127889000Y-93804619D01*
X127985761Y-93804619D01*
X128082523Y-93756238D01*
X128130904Y-93707857D01*
X128179285Y-93611095D01*
X128227666Y-93417571D01*
X128227666Y-93175666D01*
X128179285Y-92982142D01*
X128130904Y-92885380D01*
X128082523Y-92837000D01*
X127985761Y-92788619D01*
X102404333Y-120123857D02*
X102452714Y-120172238D01*
X102597857Y-120220619D01*
X102694619Y-120220619D01*
X102839761Y-120172238D01*
X102936523Y-120075476D01*
X102984904Y-119978714D01*
X103033285Y-119785190D01*
X103033285Y-119640047D01*
X102984904Y-119446523D01*
X102936523Y-119349761D01*
X102839761Y-119253000D01*
X102694619Y-119204619D01*
X102597857Y-119204619D01*
X102452714Y-119253000D01*
X102404333Y-119301380D01*
X102065666Y-119204619D02*
X101436714Y-119204619D01*
X101775380Y-119591666D01*
X101630238Y-119591666D01*
X101533476Y-119640047D01*
X101485095Y-119688428D01*
X101436714Y-119785190D01*
X101436714Y-120027095D01*
X101485095Y-120123857D01*
X101533476Y-120172238D01*
X101630238Y-120220619D01*
X101920523Y-120220619D01*
X102017285Y-120172238D01*
X102065666Y-120123857D01*
X103323571Y-115648619D02*
X103904142Y-115648619D01*
X103613857Y-115648619D02*
X103613857Y-114632619D01*
X103710619Y-114777761D01*
X103807380Y-114874523D01*
X103904142Y-114922904D01*
X102694619Y-114632619D02*
X102597857Y-114632619D01*
X102501095Y-114681000D01*
X102452714Y-114729380D01*
X102404333Y-114826142D01*
X102355952Y-115019666D01*
X102355952Y-115261571D01*
X102404333Y-115455095D01*
X102452714Y-115551857D01*
X102501095Y-115600238D01*
X102597857Y-115648619D01*
X102694619Y-115648619D01*
X102791380Y-115600238D01*
X102839761Y-115551857D01*
X102888142Y-115455095D01*
X102936523Y-115261571D01*
X102936523Y-115019666D01*
X102888142Y-114826142D01*
X102839761Y-114729380D01*
X102791380Y-114681000D01*
X102694619Y-114632619D01*
X101485095Y-114971285D02*
X101485095Y-115648619D01*
X101920523Y-114971285D02*
X101920523Y-115503476D01*
X101872142Y-115600238D01*
X101775380Y-115648619D01*
X101630238Y-115648619D01*
X101533476Y-115600238D01*
X101485095Y-115551857D01*
X100662619Y-115116428D02*
X101001285Y-115116428D01*
X101001285Y-115648619D02*
X101001285Y-114632619D01*
X100517476Y-114632619D01*
X104944333Y-106661857D02*
X104992714Y-106710238D01*
X105137857Y-106758619D01*
X105234619Y-106758619D01*
X105379761Y-106710238D01*
X105476523Y-106613476D01*
X105524904Y-106516714D01*
X105573285Y-106323190D01*
X105573285Y-106178047D01*
X105524904Y-105984523D01*
X105476523Y-105887761D01*
X105379761Y-105791000D01*
X105234619Y-105742619D01*
X105137857Y-105742619D01*
X104992714Y-105791000D01*
X104944333Y-105839380D01*
X104557285Y-105839380D02*
X104508904Y-105791000D01*
X104412142Y-105742619D01*
X104170238Y-105742619D01*
X104073476Y-105791000D01*
X104025095Y-105839380D01*
X103976714Y-105936142D01*
X103976714Y-106032904D01*
X104025095Y-106178047D01*
X104605666Y-106758619D01*
X103976714Y-106758619D01*
X105863571Y-111330619D02*
X106444142Y-111330619D01*
X106153857Y-111330619D02*
X106153857Y-110314619D01*
X106250619Y-110459761D01*
X106347380Y-110556523D01*
X106444142Y-110604904D01*
X105234619Y-110314619D02*
X105137857Y-110314619D01*
X105041095Y-110363000D01*
X104992714Y-110411380D01*
X104944333Y-110508142D01*
X104895952Y-110701666D01*
X104895952Y-110943571D01*
X104944333Y-111137095D01*
X104992714Y-111233857D01*
X105041095Y-111282238D01*
X105137857Y-111330619D01*
X105234619Y-111330619D01*
X105331380Y-111282238D01*
X105379761Y-111233857D01*
X105428142Y-111137095D01*
X105476523Y-110943571D01*
X105476523Y-110701666D01*
X105428142Y-110508142D01*
X105379761Y-110411380D01*
X105331380Y-110363000D01*
X105234619Y-110314619D01*
X104025095Y-110653285D02*
X104025095Y-111330619D01*
X104460523Y-110653285D02*
X104460523Y-111185476D01*
X104412142Y-111282238D01*
X104315380Y-111330619D01*
X104170238Y-111330619D01*
X104073476Y-111282238D01*
X104025095Y-111233857D01*
X103202619Y-110798428D02*
X103541285Y-110798428D01*
X103541285Y-111330619D02*
X103541285Y-110314619D01*
X103057476Y-110314619D01*
X201464333Y-96247857D02*
X201512714Y-96296238D01*
X201657857Y-96344619D01*
X201754619Y-96344619D01*
X201899761Y-96296238D01*
X201996523Y-96199476D01*
X202044904Y-96102714D01*
X202093285Y-95909190D01*
X202093285Y-95764047D01*
X202044904Y-95570523D01*
X201996523Y-95473761D01*
X201899761Y-95377000D01*
X201754619Y-95328619D01*
X201657857Y-95328619D01*
X201512714Y-95377000D01*
X201464333Y-95425380D01*
X200496714Y-96344619D02*
X201077285Y-96344619D01*
X200787000Y-96344619D02*
X200787000Y-95328619D01*
X200883761Y-95473761D01*
X200980523Y-95570523D01*
X201077285Y-95618904D01*
X198579619Y-97336428D02*
X198579619Y-96755857D01*
X198579619Y-97046142D02*
X197563619Y-97046142D01*
X197708761Y-96949380D01*
X197805523Y-96852619D01*
X197853904Y-96755857D01*
X197563619Y-97965380D02*
X197563619Y-98062142D01*
X197612000Y-98158904D01*
X197660380Y-98207285D01*
X197757142Y-98255666D01*
X197950666Y-98304047D01*
X198192571Y-98304047D01*
X198386095Y-98255666D01*
X198482857Y-98207285D01*
X198531238Y-98158904D01*
X198579619Y-98062142D01*
X198579619Y-97965380D01*
X198531238Y-97868619D01*
X198482857Y-97820238D01*
X198386095Y-97771857D01*
X198192571Y-97723476D01*
X197950666Y-97723476D01*
X197757142Y-97771857D01*
X197660380Y-97820238D01*
X197612000Y-97868619D01*
X197563619Y-97965380D01*
X197902285Y-99174904D02*
X198579619Y-99174904D01*
X197902285Y-98739476D02*
X198434476Y-98739476D01*
X198531238Y-98787857D01*
X198579619Y-98884619D01*
X198579619Y-99029761D01*
X198531238Y-99126523D01*
X198482857Y-99174904D01*
X198047428Y-99997380D02*
X198047428Y-99658714D01*
X198579619Y-99658714D02*
X197563619Y-99658714D01*
X197563619Y-100142523D01*
%LPC*%
D17*
X124460000Y-92075000D03*
X121920000Y-92075000D03*
X119380000Y-92075000D03*
X119380000Y-100965000D03*
X121920000Y-100965000D03*
X124460000Y-100965000D03*
X143510000Y-92075000D03*
X140970000Y-92075000D03*
X138430000Y-92075000D03*
X138430000Y-100965000D03*
X140970000Y-100965000D03*
X143510000Y-100965000D03*
X162560000Y-92075000D03*
X160020000Y-92075000D03*
X157480000Y-92075000D03*
X157480000Y-100965000D03*
X160020000Y-100965000D03*
X162560000Y-100965000D03*
X181610000Y-92075000D03*
X179070000Y-92075000D03*
X176530000Y-92075000D03*
X176530000Y-100965000D03*
X179070000Y-100965000D03*
X181610000Y-100965000D03*
X124460000Y-114935000D03*
X121920000Y-114935000D03*
X119380000Y-114935000D03*
X119380000Y-123825000D03*
X121920000Y-123825000D03*
X124460000Y-123825000D03*
X143510000Y-114935000D03*
X140970000Y-114935000D03*
X138430000Y-114935000D03*
X138430000Y-123825000D03*
X140970000Y-123825000D03*
X143510000Y-123825000D03*
X162560000Y-114935000D03*
X160020000Y-114935000D03*
X157480000Y-114935000D03*
X157480000Y-123825000D03*
X160020000Y-123825000D03*
X162560000Y-123825000D03*
X181610000Y-114935000D03*
X179070000Y-114935000D03*
X176530000Y-114935000D03*
X176530000Y-123825000D03*
X179070000Y-123825000D03*
X181610000Y-123825000D03*
D18*
X111760000Y-127000000D03*
X113030000Y-78740000D03*
X194310000Y-127000000D03*
X187960000Y-78740000D03*
D19*
X125730000Y-127000000D03*
X128270000Y-127000000D03*
X130810000Y-127000000D03*
X133350000Y-127000000D03*
X135890000Y-127000000D03*
X138430000Y-127000000D03*
X140970000Y-127000000D03*
X143510000Y-127000000D03*
X148590000Y-127000000D03*
X151130000Y-127000000D03*
X153670000Y-127000000D03*
X156210000Y-127000000D03*
X158750000Y-127000000D03*
X161290000Y-127000000D03*
X163830000Y-127000000D03*
X166370000Y-127000000D03*
X171450000Y-127000000D03*
X173990000Y-127000000D03*
X176530000Y-127000000D03*
X179070000Y-127000000D03*
X181610000Y-127000000D03*
X184150000Y-127000000D03*
X186690000Y-127000000D03*
X189230000Y-127000000D03*
X116586000Y-78740000D03*
X119126000Y-78740000D03*
X121666000Y-78740000D03*
X124206000Y-78740000D03*
X126746000Y-78740000D03*
X129286000Y-78740000D03*
X131826000Y-78740000D03*
X134366000Y-78740000D03*
X136906000Y-78740000D03*
X139446000Y-78740000D03*
X143510000Y-78740000D03*
X161290000Y-78740000D03*
X158750000Y-78740000D03*
X156210000Y-78740000D03*
X153670000Y-78740000D03*
X151130000Y-78740000D03*
X148590000Y-78740000D03*
X146050000Y-78740000D03*
X166370000Y-78740000D03*
X168910000Y-78740000D03*
X171450000Y-78740000D03*
X173990000Y-78740000D03*
X176530000Y-78740000D03*
X179070000Y-78740000D03*
X181610000Y-78740000D03*
X184150000Y-78740000D03*
X191770000Y-78232000D03*
X194310000Y-78232000D03*
D20*
X191262000Y-81280000D03*
X194818000Y-81280000D03*
X191262000Y-83820000D03*
X194818000Y-83820000D03*
X191262000Y-86360000D03*
X194818000Y-86360000D03*
X191262000Y-88900000D03*
X194818000Y-88900000D03*
X191262000Y-91440000D03*
X194818000Y-91440000D03*
X191262000Y-93980000D03*
X194818000Y-93980000D03*
X191262000Y-96520000D03*
X194818000Y-96520000D03*
X191262000Y-99060000D03*
X194818000Y-99060000D03*
X191262000Y-101600000D03*
X194818000Y-101600000D03*
X191262000Y-104140000D03*
X194818000Y-104140000D03*
X191262000Y-106680000D03*
X194818000Y-106680000D03*
X191262000Y-109220000D03*
X194818000Y-109220000D03*
X191262000Y-111760000D03*
X194818000Y-111760000D03*
X191262000Y-114300000D03*
X194818000Y-114300000D03*
X191262000Y-116840000D03*
X194818000Y-116840000D03*
X191262000Y-119380000D03*
X194818000Y-119380000D03*
X191262000Y-121920000D03*
X194818000Y-121920000D03*
D21*
X119380000Y-86995000D03*
X124460000Y-86995000D03*
X138430000Y-86995000D03*
X143510000Y-86995000D03*
X157480000Y-86995000D03*
X162560000Y-86995000D03*
X176530000Y-86995000D03*
X181610000Y-86995000D03*
X119380000Y-109855000D03*
X124460000Y-109855000D03*
X138430000Y-109855000D03*
X143510000Y-109855000D03*
X157480000Y-109855000D03*
X162560000Y-109855000D03*
X176530000Y-109855000D03*
X181610000Y-109855000D03*
D22*
X119126000Y-97790000D03*
X124714000Y-97790000D03*
X138176000Y-97790000D03*
X143764000Y-97790000D03*
X157226000Y-97790000D03*
X162814000Y-97790000D03*
X176276000Y-97790000D03*
X181864000Y-97790000D03*
X119126000Y-120650000D03*
X124714000Y-120650000D03*
X138176000Y-120650000D03*
X143764000Y-120650000D03*
X157226000Y-120650000D03*
X162814000Y-120650000D03*
X176276000Y-120650000D03*
X181864000Y-120650000D03*
D19*
X103505000Y-113030000D03*
X100965000Y-113030000D03*
X106045000Y-113030000D03*
D23*
X208457800Y-102870000D03*
D24*
X204952600Y-102870000D03*
D25*
X199466200Y-102870000D03*
D26*
X206451200Y-98374200D03*
X206451200Y-107365800D03*
D27*
X99060000Y-107950000D03*
X99060000Y-97790000D03*
D28*
X105156000Y-102870000D03*
D29*
X107950000Y-102870000D03*
X107950000Y-100076000D03*
X107950000Y-105664000D03*
D30*
X198755000Y-94970600D03*
X203835000Y-94970600D03*
D31*
X99695000Y-90170000D03*
X99695000Y-80264000D03*
D32*
X206375000Y-86106000D03*
X203835000Y-86106000D03*
X201295000Y-86106000D03*
D31*
X208788000Y-82931000D03*
X198882000Y-82931000D03*
D33*
X209829400Y-79375000D03*
X197840600Y-79375000D03*
D31*
X205359000Y-80137000D03*
X205359000Y-90043000D03*
D32*
X201295000Y-119634000D03*
X203835000Y-119634000D03*
X206375000Y-119634000D03*
D31*
X198882000Y-122809000D03*
X208788000Y-122809000D03*
D33*
X197840600Y-126365000D03*
X209829400Y-126365000D03*
D31*
X207518000Y-124079000D03*
X200152000Y-124079000D03*
D29*
X171450000Y-118110000D03*
X171450000Y-123190000D03*
X152400000Y-118745000D03*
X152400000Y-123825000D03*
X133350000Y-118110000D03*
X133350000Y-123190000D03*
X114300000Y-118110000D03*
X114300000Y-123190000D03*
X171450000Y-95250000D03*
X171450000Y-100330000D03*
X152400000Y-95250000D03*
X152400000Y-100330000D03*
X133350000Y-95250000D03*
X133350000Y-100330000D03*
X114300000Y-95250000D03*
X114300000Y-100330000D03*
D28*
X197485000Y-109220000D03*
X202565000Y-109220000D03*
D34*
X186055000Y-120904000D03*
X186055000Y-117856000D03*
X167005000Y-120904000D03*
X167005000Y-117856000D03*
X147955000Y-120904000D03*
X147955000Y-117856000D03*
X128905000Y-120904000D03*
X128905000Y-117856000D03*
X186055000Y-98044000D03*
X186055000Y-94996000D03*
X167005000Y-98044000D03*
X167005000Y-94996000D03*
X147955000Y-98044000D03*
X147955000Y-94996000D03*
X128905000Y-98044000D03*
X128905000Y-94996000D03*
D35*
X100711000Y-117475000D03*
X103759000Y-117475000D03*
X106299000Y-108585000D03*
X103251000Y-108585000D03*
X199771000Y-98425000D03*
X202819000Y-98425000D03*
M02*
